HIERARCHY
ROOT ZeroOut_JNT
{
  OFFSET 0 0 0
  CHANNELS 6 Xposition Yposition Zposition Zrotation Xrotation Yrotation
  JOINT SpineFinal_1_JNT
  {
    OFFSET 1.09941 64.002 -42.9966
    CHANNELS 6 Xposition Yposition Zposition Zrotation Xrotation Yrotation
    JOINT l_legIKClavicle_Root_JNT
    {
      OFFSET -2.64853 -0.810668 10.7015
      CHANNELS 6 Xposition Yposition Zposition Zrotation Xrotation Yrotation
      JOINT l_legBlendRoot_JNT
      {
        OFFSET 16.1374 0 0
        CHANNELS 6 Xposition Yposition Zposition Zrotation Xrotation Yrotation
        JOINT l_legBlendMiddle_JNT
        {
          OFFSET 27.0969 0 0
          CHANNELS 6 Xposition Yposition Zposition Zrotation Xrotation Yrotation
          JOINT l_legBlendEnd_JNT
          {
            OFFSET 24.8414 0 0
            CHANNELS 6 Xposition Yposition Zposition Zrotation Xrotation Yrotation
            JOINT l_legBlendTip_JNT
            {
              OFFSET 6.77858 0 0
              CHANNELS 6 Xposition Yposition Zposition Zrotation Xrotation Yrotation
              End Site
              {
                OFFSET 0 0 0
              }
            }
          }
        }
      }
    }
    JOINT SpineFinal_2_JNT
    {
      OFFSET -19.9136 -1.49144 0.993757
      CHANNELS 6 Xposition Yposition Zposition Zrotation Xrotation Yrotation
      JOINT SpineFinal_3_JNT
      {
        OFFSET -19.2001 3.24201 2.0363
        CHANNELS 6 Xposition Yposition Zposition Zrotation Xrotation Yrotation
        JOINT SpineFinal_4_JNT
        {
          OFFSET -19.1272 6.18264 0.824529
          CHANNELS 6 Xposition Yposition Zposition Zrotation Xrotation Yrotation
          JOINT SpineFinal_5_JNT
          {
            OFFSET -18.1852 7.21578 -1.20318
            CHANNELS 6 Xposition Yposition Zposition Zrotation Xrotation Yrotation
            JOINT SpineFinal_6_JNT
            {
              OFFSET -19.144 8.35871 0
              CHANNELS 6 Xposition Yposition Zposition Zrotation Xrotation Yrotation
              JOINT SpineFinal_7_JNT
              {
                OFFSET -16.3943 7.24542 0
                CHANNELS 6 Xposition Yposition Zposition Zrotation Xrotation Yrotation
                JOINT SpineFinal_8_JNT
                {
                  OFFSET -19.3877 2.40349 0
                  CHANNELS 6 Xposition Yposition Zposition Zrotation Xrotation Yrotation
                  JOINT head_JNT
                  {
                    OFFSET -13.796 -11.6756 0
                    CHANNELS 6 Xposition Yposition Zposition Zrotation Xrotation Yrotation
                    JOINT l_hornRoot_JNT
                    {
                      OFFSET -15.825 14.8229 15.3879
                      CHANNELS 6 Xposition Yposition Zposition Zrotation Xrotation Yrotation
                      JOINT l_hornMid_JNT
                      {
                        OFFSET 6.55118 0 0
                        CHANNELS 6 Xposition Yposition Zposition Zrotation Xrotation Yrotation
                        JOINT l_hornEnd_JNT
                        {
                          OFFSET 6.73503 0 0
                          CHANNELS 6 Xposition Yposition Zposition Zrotation Xrotation Yrotation
                          End Site
                          {
                            OFFSET 0 0 0
                          }
                        }
                      }
                    }
                    JOINT headJend_JNT
                    {
                      OFFSET 1.34858 -27.5886 0
                      CHANNELS 6 Xposition Yposition Zposition Zrotation Xrotation Yrotation
                      End Site
                      {
                        OFFSET -0.885571 -8.63314 -0.143146
                      }
                    }
                    JOINT r_hornRoot_JNT
                    {
                      OFFSET -15.825 14.8229 -15.3879
                      CHANNELS 6 Xposition Yposition Zposition Zrotation Xrotation Yrotation
                      JOINT r_hornMid_JNT
                      {
                        OFFSET -2.40814 5.46468 -2.69372
                        CHANNELS 6 Xposition Yposition Zposition Zrotation Xrotation Yrotation
                        JOINT r_hornEnd_JNT
                        {
                          OFFSET -2.40922 6.0083 -1.85921
                          CHANNELS 6 Xposition Yposition Zposition Zrotation Xrotation Yrotation
                          End Site
                          {
                            OFFSET 0 0 0
                          }
                        }
                      }
                    }
                    JOINT m_upLip_JNT
                    {
                      OFFSET 4.72477 -9.87974 0
                      CHANNELS 6 Xposition Yposition Zposition Zrotation Xrotation Yrotation
                      JOINT l_lipUpRoot_JNT
                      {
                        OFFSET 2.68891 -0.690234 4.02874
                        CHANNELS 6 Xposition Yposition Zposition Zrotation Xrotation Yrotation
                        JOINT l_lipUpEnd_JNT
                        {
                          OFFSET 0 0 -14.9226
                          CHANNELS 6 Xposition Yposition Zposition Zrotation Xrotation Yrotation
                          End Site
                          {
                            OFFSET 0 0 0
                          }
                        }
                      }
                      JOINT m_upLipRoot_JNT
                      {
                        OFFSET 0 0 3.94939
                        CHANNELS 6 Xposition Yposition Zposition Zrotation Xrotation Yrotation
                        JOINT m_upLipEnd_JNT
                        {
                          OFFSET 0 0 15.0019
                          CHANNELS 6 Xposition Yposition Zposition Zrotation Xrotation Yrotation
                          End Site
                          {
                            OFFSET 0 0 0
                          }
                        }
                      }
                      JOINT r_lipUpRoot_JNT
                      {
                        OFFSET -2.689 -0.690236 4.02875
                        CHANNELS 6 Xposition Yposition Zposition Zrotation Xrotation Yrotation
                        JOINT r_lipUpEnd_JNT
                        {
                          OFFSET 9.35075e-005 -0.000392738 14.9226
                          CHANNELS 6 Xposition Yposition Zposition Zrotation Xrotation Yrotation
                          End Site
                          {
                            OFFSET 0 0 0
                          }
                        }
                      }
                    }
                    JOINT m_DnLip_JNT
                    {
                      OFFSET 6.0207 -9.81639 0
                      CHANNELS 6 Xposition Yposition Zposition Zrotation Xrotation Yrotation
                      JOINT l_lipDn_JNT
                      {
                        OFFSET 2.71301 -0.162748 3.99146
                        CHANNELS 6 Xposition Yposition Zposition Zrotation Xrotation Yrotation
                        JOINT l_lipEnd_JNT
                        {
                          OFFSET 0 0 -14.9599
                          CHANNELS 6 Xposition Yposition Zposition Zrotation Xrotation Yrotation
                          End Site
                          {
                            OFFSET 0 0 0
                          }
                        }
                      }
                      JOINT m_dnLip_JNT
                      {
                        OFFSET 0 -0.0431035 3.99141
                        CHANNELS 6 Xposition Yposition Zposition Zrotation Xrotation Yrotation
                        JOINT m_dnLipEnd_JNT
                        {
                          OFFSET 0 0 14.9599
                          CHANNELS 6 Xposition Yposition Zposition Zrotation Xrotation Yrotation
                          End Site
                          {
                            OFFSET 0 0 0
                          }
                        }
                      }
                      JOINT r_lipDn_JNT
                      {
                        OFFSET -2.71301 -0.162761 3.99141
                        CHANNELS 6 Xposition Yposition Zposition Zrotation Xrotation Yrotation
                        JOINT r_lipDnEnd_JNT
                        {
                          OFFSET 0 0 14.9599
                          CHANNELS 6 Xposition Yposition Zposition Zrotation Xrotation Yrotation
                          End Site
                          {
                            OFFSET 0 0 0
                          }
                        }
                      }
                    }
                    JOINT l_lid_JNT
                    {
                      OFFSET -7.85698 -6.72885 9.63956
                      CHANNELS 6 Xposition Yposition Zposition Zrotation Xrotation Yrotation
                      End Site
                      {
                        OFFSET 0 0 0
                      }
                    }
                    JOINT r_lid_JNT
                    {
                      OFFSET -7.85684 -6.72882 -9.63956
                      CHANNELS 6 Xposition Yposition Zposition Zrotation Xrotation Yrotation
                      End Site
                      {
                        OFFSET 0 0 0
                      }
                    }
                  }
                }
              }
            }
            JOINT l_FwClavicleRoot_JNT
            {
              OFFSET -3.21476 -4.3187 6.08742
              CHANNELS 6 Xposition Yposition Zposition Zrotation Xrotation Yrotation
              JOINT l_FwLegBlendRoot_JNT
              {
                OFFSET 21.051 0 0
                CHANNELS 6 Xposition Yposition Zposition Zrotation Xrotation Yrotation
                JOINT l_FwLegBlendMiddle_JNT
                {
                  OFFSET 33.1145 0 0
                  CHANNELS 6 Xposition Yposition Zposition Zrotation Xrotation Yrotation
                  JOINT l_FwLegBlendTip_JNT
                  {
                    OFFSET 29.9221 0 0
                    CHANNELS 6 Xposition Yposition Zposition Zrotation Xrotation Yrotation
                    JOINT l_FwLegBlendEnd_JNT
                    {
                      OFFSET 9.62649 0 0
                      CHANNELS 6 Xposition Yposition Zposition Zrotation Xrotation Yrotation
                      End Site
                      {
                        OFFSET 0 0 0
                      }
                    }
                  }
                }
              }
            }
            JOINT r_FwClavicleRoot_JNT
            {
              OFFSET 1.57499 -4.64749 -6.47788
              CHANNELS 6 Xposition Yposition Zposition Zrotation Xrotation Yrotation
              JOINT r_FwLegBlendRoot_JNT
              {
                OFFSET 1.1653 -12.7157 -16.7361
                CHANNELS 6 Xposition Yposition Zposition Zrotation Xrotation Yrotation
                JOINT r_FwLegBlendMiddle_JNT
                {
                  OFFSET 16.2308 -5.97551 28.2387
                  CHANNELS 6 Xposition Yposition Zposition Zrotation Xrotation Yrotation
                  JOINT r_FwLegBlendTip_JNT
                  {
                    OFFSET 26.7017 -9.19239 -9.89204
                    CHANNELS 6 Xposition Yposition Zposition Zrotation Xrotation Yrotation
                    JOINT r_FwLegBlendEnd_JNT
                    {
                      OFFSET 4.44874 -7.74942 3.58114
                      CHANNELS 6 Xposition Yposition Zposition Zrotation Xrotation Yrotation
                      End Site
                      {
                        OFFSET 0 0 0
                      }
                    }
                  }
                }
              }
            }
          }
        }
      }
    }
    JOINT r_legIKClavicle_Root_JNT
    {
      OFFSET -4.94604 1.23737 -11.8565
      CHANNELS 6 Xposition Yposition Zposition Zrotation Xrotation Yrotation
      JOINT r_legBlendRoot_JNT
      {
        OFFSET 13.2848 -5.74129 -7.13912
        CHANNELS 6 Xposition Yposition Zposition Zrotation Xrotation Yrotation
        JOINT r_legBlendMiddle_JNT
        {
          OFFSET 14.815 16.9375 15.0957
          CHANNELS 6 Xposition Yposition Zposition Zrotation Xrotation Yrotation
          JOINT r_legBlendEnd_JNT
          {
            OFFSET 23.6904 -6.58016 -3.54465
            CHANNELS 6 Xposition Yposition Zposition Zrotation Xrotation Yrotation
            JOINT r_legBlendTip_JNT
            {
              OFFSET 1.47758 -6.16068 -2.41079
              CHANNELS 6 Xposition Yposition Zposition Zrotation Xrotation Yrotation
              End Site
              {
                OFFSET 0 0 0
              }
            }
          }
        }
      }
    }
    JOINT tailRoot_JNT
    {
      OFFSET 2.82533 14.5514 0
      CHANNELS 6 Xposition Yposition Zposition Zrotation Xrotation Yrotation
      JOINT tailMid_JNT
      {
        OFFSET 7.87756 0 0
        CHANNELS 6 Xposition Yposition Zposition Zrotation Xrotation Yrotation
        JOINT tailEnd_JNT
        {
          OFFSET 6.52588 0 0
          CHANNELS 6 Xposition Yposition Zposition Zrotation Xrotation Yrotation
          End Site
          {
            OFFSET 0 0 0
          }
        }
      }
    }
    JOINT l_shoulderBkRoot_JNT
    {
      OFFSET -9.30511 7.998 11.2048
      CHANNELS 6 Xposition Yposition Zposition Zrotation Xrotation Yrotation
      JOINT l_shoulderBkMid_JNT
      {
        OFFSET 0 2.004 0
        CHANNELS 6 Xposition Yposition Zposition Zrotation Xrotation Yrotation
        End Site
        {
          OFFSET 0 0 0
        }
      }
    }
    JOINT r_shoulderBkRoot_JNT
    {
      OFFSET -9.30514 7.99801 -11.2048
      CHANNELS 6 Xposition Yposition Zposition Zrotation Xrotation Yrotation
      JOINT r_shoulderBkMid_JNT
      {
        OFFSET 0 -3.9713 0
        CHANNELS 6 Xposition Yposition Zposition Zrotation Xrotation Yrotation
        End Site
        {
          OFFSET 0 0 0
        }
      }
    }
  }
}
MOTION
Frames:	3
Frame Time:	0.0416667
0 0 0 0 0 -0 9.9718e-017 64.0226 -43 2.52271e-017 6.8505 90 -0.323145 -1.55994 9.59625 -26.4062 61.2999 -67.9538 16.1374 -6.32415e-007 1.68252e-006 -26.9057 10.3846 45.4794 27.0969 0 1.42109e-014 4.98513e-015 2.22778e-015 -53.9439 24.8414 7.10543e-015 3.55271e-014 6.99409e-015 9.41296e-016 -50.0311 6.77858 -7.10543e-015 -1.77636e-014 -0 -1.89576e-022 -0 -19.5397 7.10543e-015 -3.20834e-015 0 0 -0 -19.4076 1.98539 -3.88578e-015 -5.84101 -2.26213e-031 -2.2414e-016 -18.5401 5.80111 5.88418e-015 -17.3747 -2.54444e-014 -1.16499e-014 -18.018 7.25644 -4.85917e-015 -21.9362 2.11868e-030 -7.88521e-015 -19.144 8.35871 -2.88325e-014 -23.5872 -8.4747e-030 -1.12214e-014 -16.3943 7.24542 1.55613e-014 -23.8429 6.36111e-015 -1.26869e-014 -19.3877 2.40349 -4.69349e-014 -7.06692 9.54166e-015 -1.2707e-014 -13.796 -11.6756 2.31438e-014 1.67134e-060 -5.6498e-030 1.69494e-029 -15.825 14.8229 15.3879 112.717 -2.35881 -24.301 6.55118 1.98952e-013 7.10543e-015 -7.71367e-009 -7.59931 2.05853 6.73503 5.68434e-014 -5.68434e-014 -1.59028e-015 0 -0 1.34858 -27.5886 -1.33918e-014 92.7985 1.31729e-014 -1.65353e-014 -15.825 14.8229 -15.3879 3.97569e-015 -2.22639e-014 -2.70347e-014 -2.40814 5.46468 -2.69372 -36.0976 -3.24524 -12.7174 -2.40922 6.0083 -1.85921 3.18055e-015 -3.18055e-015 -7.95139e-016 4.72477 -9.87974 5.55569e-015 92.7985 3.50417e-015 -90 2.68891 -0.690234 4.02874 180 7.01671e-015 -180 -4.44089e-016 -2.84217e-014 -14.9226 2.31315e-030 0 5.6498e-030 1.30029e-015 -2.84217e-014 3.94939 -9.95046e-030 1.89576e-022 -0 0 2.84217e-014 15.0019 1.34914e-030 0 -5.6498e-030 -2.689 -0.690236 4.02875 -9.95046e-030 1.89576e-022 -0 9.35075e-005 -0.000392738 14.9226 1.34914e-030 0 -5.6498e-030 6.0207 -9.81639 6.35085e-015 92.7985 3.50417e-015 -90 2.71301 -0.162748 3.99146 180 7.01671e-015 -180 -4.44089e-016 0 -14.9599 2.31315e-030 0 5.6498e-030 1.33097e-015 -0.0431035 3.99141 -9.95046e-030 1.89576e-022 -0 1.26218e-029 0 14.9599 1.34914e-030 0 -5.6498e-030 -2.71301 -0.162761 3.99141 -9.95046e-030 1.89576e-022 -0 -4.44089e-016 0 14.9599 1.34914e-030 0 -5.6498e-030 -7.85698 -6.72885 9.63956 34.106 19.9417 85.9622 -7.85684 -6.72882 -9.63956 -145.894 19.9417 85.9622 0.43207 -4.54112 6.72563 48.7642 26.2605 -112.654 21.051 4.13081e-010 2.27599e-009 71.3946 -61.7625 136.892 33.1145 8.3753e-007 -2.8019e-007 140.915 7.01671e-015 180 29.9221 -2.13163e-014 0 41.2085 2.39988e-015 4.23862e-015 9.62649 2.4869e-014 1.06581e-014 29.859 -1.7467e-015 90 0.43207 -4.54112 -6.72563 -26.6436 9.37258 -17.9831 1.1653 -12.7157 -16.7361 71.2751 -61.7372 136.842 16.2308 -5.97551 28.2387 140.792 -0.0399932 -179.884 26.7017 -9.19239 -9.89204 41.1443 -0.0556683 -0.0319577 4.44874 -7.74942 3.58114 29.859 -1.7467e-015 90 -0.323145 -1.55994 -9.59625 -62.7106 -9.24999 4.74057 13.2848 -5.74129 -7.13912 -26.9651 10.3846 45.5485 14.815 16.9375 15.0957 0.0725797 -0.0739551 -54.0475 23.6904 -6.58016 -3.54465 -0.0445889 -0.00667157 -49.986 1.47758 -6.16068 -2.41079 3.97569e-016 0 3.23025e-015 2.82533 14.5514 2.3584e-015 4.99157 2.64834e-031 -5.22158e-015 7.87756 0 -4.64622e-015 19.1217 -1.67259e-015 7.66947e-016 6.52588 1.42109e-014 1.743e-015 -1.74098e-062 1.41245e-030 7.06225e-031 -9.30511 7.998 11.2048 -6.8505 -4.18474e-016 -90 0 0 0 4.66553e-033 0 -0 -9.30514 7.99801 -11.2048 173.149 4.18474e-016 -90 0 0 0 2.4957e-031 0 -0 
0 0 0 0 0 -0 9.9718e-017 64.0226 -43 -0.00126109 6.84692 90.0002 -0.323145 -1.55994 9.59625 -26.4062 61.2999 -67.9538 16.1374 -6.32415e-007 1.68252e-006 -26.9041 10.385 45.4853 27.0969 7.10543e-015 1.42109e-014 4.98499e-015 2.22776e-015 -53.9449 24.8414 3.55271e-015 2.84217e-014 -0.000340173 -0.000280876 -50.0315 6.77858 -7.10543e-015 -1.42109e-014 -3.79152e-022 -1.89576e-022 -9.54166e-015 -19.5397 0 -3.20837e-015 0 2.24458e-019 -0 -19.4076 1.98539 -3.88578e-015 -5.79734 -0.000264591 -2.69613e-005 -18.5401 5.80111 5.88418e-015 -17.371 1.80394e-006 -6.24454e-007 -18.018 7.25644 -4.85918e-015 -21.9827 -2.39788e-006 -3.46605e-007 -19.144 8.35871 -2.88322e-014 -23.5466 -7.91062e-018 -1.12212e-014 -16.3943 7.24542 1.55613e-014 -23.8298 6.3582e-015 -1.26886e-014 -19.3877 2.40349 -4.69349e-014 -7.05901 9.53989e-015 -1.27084e-014 -13.796 -11.6756 2.3144e-014 3.97569e-016 2.42657e-020 -1.09196e-019 -15.825 14.8229 15.3879 112.717 -2.35881 -24.301 6.55118 2.27374e-013 3.55271e-015 -7.71366e-009 -7.59931 2.05853 6.73503 2.84217e-014 -4.9738e-014 -6.36111e-015 0 3.18055e-015 1.34858 -27.5886 -1.33918e-014 92.7985 1.31727e-014 -1.65353e-014 -15.825 14.8229 -15.3879 4.77083e-015 -2.22639e-014 -2.7035e-014 -2.40814 5.46468 -2.69372 -36.0976 -3.24524 -12.7174 -2.40922 6.0083 -1.85921 3.18055e-015 -1.59028e-015 7.95139e-016 4.72477 -9.87974 5.55589e-015 92.7985 3.50417e-015 -90 2.68891 -0.690234 4.02874 -180 7.01671e-015 180 4.44089e-016 -5.68434e-014 -14.9226 -2.07586e-020 0 -4.85314e-020 1.30018e-015 -2.84217e-014 3.94939 4.59721e-021 0 9.70628e-020 -6.50521e-019 0 15.0019 4.57352e-021 0 7.27971e-020 -2.689 -0.690236 4.02875 4.59721e-021 0 9.70628e-020 9.35075e-005 -0.000392738 14.9226 4.57352e-021 0 7.27971e-020 6.0207 -9.81639 6.35061e-015 92.7985 3.50417e-015 -90 2.71301 -0.162748 3.99146 -180 7.01671e-015 180 8.88178e-016 0 -14.9599 -2.07586e-020 0 -4.85314e-020 1.33075e-015 -0.0431035 3.99141 4.59721e-021 0 9.70628e-020 -2.1684e-019 0 14.9599 4.57352e-021 0 7.27971e-020 -2.71301 -0.162761 3.99141 4.59721e-021 0 9.70628e-020 8.88178e-016 -2.84217e-014 14.9599 4.57352e-021 0 7.27971e-020 -7.85698 -6.72885 9.63956 34.106 19.9417 85.9622 -7.85684 -6.72882 -9.63956 -145.894 19.9417 85.9622 0.43207 -4.54112 6.72563 48.7634 26.2605 -112.654 21.051 4.13081e-010 2.27599e-009 71.2321 -61.6903 136.749 33.1145 8.3753e-007 -2.8019e-007 140.691 7.01671e-015 180 29.9221 -2.13163e-014 3.55271e-015 41.0912 2.39103e-015 4.24358e-015 9.62649 2.4869e-014 7.10543e-015 29.859 -1.7467e-015 90 0.43207 -4.54112 -6.72563 -26.5699 9.37257 -17.9831 1.1653 -12.7157 -16.7361 71.2959 -61.7266 136.821 16.2308 -5.97551 28.2387 140.792 0.0598447 179.824 26.7017 -9.19239 -9.89204 41.1433 0.102563 0.0591463 4.44874 -7.74942 3.58114 29.859 -8.08068e-015 90 -0.323145 -1.55994 -9.59625 -62.7106 -9.24999 4.74057 13.2848 -5.74129 -7.13912 -26.9611 10.3849 45.5461 14.815 16.9375 15.0957 0.0736795 -0.0750759 -54.0475 23.6904 -6.58016 -3.54465 -0.0464915 -0.00713971 -49.9856 1.47758 -6.16068 -2.41079 3.97569e-016 -7.95139e-016 1.78906e-015 2.82533 14.5514 2.35814e-015 5.07942 -7.70436e-018 -5.22162e-015 7.87756 0 -4.64624e-015 19.1787 -1.67151e-015 7.68738e-016 6.52588 7.10543e-015 1.74318e-015 -3.18055e-015 1.21329e-020 -1.6986e-019 -9.30511 7.998 11.2048 -6.8505 -4.18474e-016 -90 0 0 0 -1.17567e-020 1.55301e-018 2.42657e-020 -9.30514 7.99801 -11.2048 173.149 4.18474e-016 -90 0 0 0 9.37378e-020 -7.76503e-019 -4.85314e-020 
0 0 0 0 0 -0 -2.78215e-016 64.0381 -43.0008 -0.0202364 6.77747 90.0026 -0.323145 -1.55994 9.59625 -26.4062 61.2999 -67.9538 16.1374 -6.33808e-007 1.68296e-006 -26.8793 10.3909 45.5262 27.0969 2.84217e-014 -2.84217e-014 4.98701e-015 2.22895e-015 -53.8654 24.8414 7.10543e-015 3.55271e-014 -0.00546199 -0.00450121 -50.0899 6.77858 -7.10543e-015 -7.10543e-015 -2.10471e-038 -3.79152e-022 -3.18055e-015 -19.5403 -0.023347 -6.97632e-005 0.0927836 -0.0143026 -0.000305398 -19.4003 1.89128 -0.00011201 -5.01843 -0.00493406 -0.000268604 -18.411 5.6601 -6.36962e-007 -17.2864 3.50597e-005 -1.19571e-005 -17.9179 7.33517 -2.68408e-006 -22.7388 -4.59464e-005 -8.51687e-006 -19.144 8.35871 -2.07816e-014 -22.9679 -1.21207e-016 -1.12209e-014 -16.3943 7.24542 2.60764e-014 -23.6133 6.31018e-015 -1.27122e-014 -19.3877 2.40349 -3.46628e-014 -6.89955 9.50446e-015 -1.27347e-014 -13.796 -11.6756 2.83201e-014 0.75249 7.27971e-020 -2.35074e-020 -15.825 14.8229 15.3879 112.717 -2.35881 -24.301 6.55118 1.13687e-013 1.77636e-014 -7.71367e-009 -7.59931 2.05853 6.73503 2.84217e-014 -4.9738e-014 3.18055e-015 0 3.18055e-015 1.34858 -27.5886 -1.33918e-014 92.7985 1.31729e-014 -1.65353e-014 -15.825 14.8229 -15.3879 -8.74653e-015 -1.27223e-014 4.77103e-015 -2.40814 5.46468 -2.69372 -36.0976 -3.24524 -12.7174 -2.40922 6.0083 -1.85921 -1.59028e-014 -1.59028e-015 -7.95139e-016 4.72477 -9.87974 -3.65593e-016 92.7985 3.50417e-015 -90 2.68891 -0.690234 4.02874 180 7.01671e-015 -180 4.44089e-016 -2.84217e-014 -14.9226 1.93367e-019 3.97569e-016 2.42657e-020 -2.1684e-019 2.84217e-014 3.94939 -2.15358e-019 3.97569e-016 -2.42657e-020 0 0 15.0019 -2.146e-019 3.97569e-016 -0 -2.689 -0.690236 4.02875 -2.15358e-019 3.97569e-016 -2.42657e-020 9.35075e-005 -0.000392738 14.9226 -2.146e-019 3.97569e-016 -0 6.0207 -9.81639 -3.65376e-016 92.7985 3.50417e-015 -90 2.71301 -0.162748 3.99146 180 7.01671e-015 -180 0 2.84217e-014 -14.9599 1.93367e-019 3.97569e-016 2.42657e-020 -9.75782e-018 -0.0431035 3.99141 -2.15358e-019 3.97569e-016 -2.42657e-020 2.1684e-019 0 14.9599 -2.146e-019 3.97569e-016 -0 -2.71301 -0.162761 3.99141 -2.15358e-019 3.97569e-016 -2.42657e-020 0 2.84217e-014 14.9599 -2.146e-019 3.97569e-016 -0 -7.85698 -6.72885 9.63956 34.106 19.9417 85.9622 -7.85684 -6.72882 -9.63956 -145.894 19.9417 85.9622 0.497948 -4.51444 6.72563 48.9568 26.2611 -112.655 21.051 -1.12811e-008 -6.53042e-008 69.2479 -60.7624 135.01 33.1145 8.3753e-007 -2.8019e-007 136.993 7.01671e-015 180 29.9221 1.42109e-014 7.10543e-015 39.032 2.23657e-015 4.32667e-015 9.62649 2.4869e-014 7.10543e-015 29.859 -1.7467e-015 90 0.684289 -4.44454 -6.72563 -25.6208 9.37275 -17.9836 1.1653 -12.7157 -16.7361 71.547 -61.6007 136.571 16.2308 -5.97551 28.2387 140.855 1.39555 175.911 26.7017 -9.19239 -9.89204 41.1239 2.57292 1.47758 4.44874 -7.74942 3.58114 29.859 -1.7467e-015 90 -0.323145 -1.55994 -9.59625 -62.7106 -9.24999 4.74057 13.2848 -5.74129 -7.13912 -26.9413 10.3878 45.5177 14.815 16.9375 15.0957 0.167116 -0.170283 -54.0473 23.6904 -6.58016 -3.54465 -0.128517 -0.0221749 -49.9797 1.47758 -6.16068 -2.41079 -7.95139e-016 0 -5.61567e-015 2.82533 14.5514 -3.53884e-016 6.33136 -1.22008e-016 -5.22004e-015 7.87756 -2.84217e-014 -5.04805e-015 19.992 -1.65822e-015 7.92421e-016 6.52588 2.13163e-014 1.06859e-015 0.149571 1.16475e-018 -1.94126e-018 -9.30511 7.998 11.2048 -6.8505 -4.18474e-016 -90 0 0 0 -8.83803e-019 0 -3.88251e-019 -9.30514 7.99801 -11.2048 173.149 4.18474e-016 -90 0 0 0 1.73727e-018 -2.48481e-017 7.76503e-019 
